<?xml version="1.0" encoding="UTF-8"?>
<svg version="1.1" xmlns="http://www.w3.org/2000/svg" width="500" height="500">
<path d="M0 0 C165 0 330 0 500 0 C500 165 500 330 500 500 C335 500 170 500 0 500 C0 335 0 170 0 0 Z " fill="#60D2E9" transform="translate(0,0)"/>
<path d="M0 0 C165 0 330 0 500 0 C500 165 500 330 500 500 C335 500 170 500 0 500 C0 335 0 170 0 0 Z M198 20.75 C196.88971436 21.01458008 195.77942871 21.27916016 194.63549805 21.55175781 C153.00321326 31.71052938 116.96288776 52.59923863 86 82 C85.46584473 82.50547363 84.93168945 83.01094727 84.38134766 83.53173828 C76.62408415 90.92476772 69.68698497 98.66562298 63.29101562 107.26464844 C62.44992887 108.39521664 61.60255486 109.52114296 60.74804688 110.64160156 C39.2636739 138.81643299 23.94264452 173.56111068 18.39379883 208.57714844 C18.11810274 210.27337161 17.80765127 211.96414246 17.47143555 213.64941406 C15.61994619 223.7005913 15.66253864 233.71598927 15.68432617 243.90771484 C15.6874653 246.96619048 15.66403096 250.02367594 15.63867188 253.08203125 C15.59952707 265.55163199 16.56070034 277.524858 18.63902283 289.81916809 C18.98345239 291.90002813 19.29030064 293.9823627 19.58129883 296.07128906 C25.46297144 337.21614036 48.24450769 376.98753397 75.62109375 407.45361328 C77.38975595 409.43709528 79.09790407 411.46976254 80.8125 413.5 C83.60583163 416.68357649 86.63733578 419.44518866 89.87109375 422.17578125 C91.31052216 423.40919972 92.71932121 424.67913567 94.09765625 425.98046875 C105.69294907 436.89953524 119.17588154 446.13645139 133 454 C134.00522705 454.57331055 134.00522705 454.57331055 135.03076172 455.15820312 C161.18643018 469.91718081 189.32030849 478.83269443 219 483 C220.08486694 483.15795044 220.08486694 483.15795044 221.19165039 483.3190918 C229.52777036 484.34570756 237.95242814 484.18605687 246.33764648 484.18530273 C249.03190249 484.18747533 251.72573872 484.20564146 254.41992188 484.22460938 C265.43453411 484.26063314 276.10108722 483.5790769 287 482 C287.92611084 481.87520264 288.85222168 481.75040527 289.80639648 481.62182617 C345.68060894 473.66911457 400.95912711 439.75225135 435 395 C435.48968262 394.3596582 435.97936523 393.71931641 436.48388672 393.05957031 C444.71966112 382.21709443 451.78137613 371.10622794 458 359 C458.40814941 358.22414551 458.81629883 357.44829102 459.23681641 356.64892578 C471.50333853 333.17358789 479.0039911 308.12376084 483 282 C483.17885742 280.93942383 483.35771484 279.87884766 483.54199219 278.78613281 C484.0962053 274.2047165 484.16221553 269.71561627 484.16796875 265.10546875 C484.17129715 264.15924149 484.17462555 263.21301422 484.17805481 262.2381134 C484.18310199 260.23695356 484.18546382 258.23578535 484.18530273 256.23461914 C484.18746572 253.23503924 484.20557975 250.23584194 484.22460938 247.23632812 C484.27995542 229.53209919 482.67402941 212.86266548 478.375 195.6875 C478.20048309 194.97865662 478.02596619 194.26981323 477.84616089 193.53948975 C474.81608023 181.29821742 471.08649364 169.55868455 466 158 C465.48034668 156.79996338 465.48034668 156.79996338 464.95019531 155.57568359 C441.0502514 100.96442108 395.25433321 55.39774165 339.80957031 33.08007812 C310.7437633 21.90636156 282.10820204 15.57769717 250.89282227 15.73925781 C248.43415791 15.75001462 245.97622126 15.73925479 243.51757812 15.7265625 C228.06032075 15.71079666 213.05058288 17.11016884 198 20.75 Z " fill="#5E1BEA" transform="translate(0,0)"/>
<path d="M0 0 C0.7238942 -0.00350464 1.44778839 -0.00700928 2.19361877 -0.01062012 C4.59735599 -0.01945143 7.00080055 -0.01357797 9.40454102 -0.00683594 C11.07926998 -0.00818351 12.75399857 -0.01012481 14.4287262 -0.01263428 C17.94861556 -0.01558851 21.46840364 -0.01128323 24.98828125 -0.00195312 C29.47347697 0.00936267 33.95843124 0.00293431 38.44361782 -0.00909805 C41.90887723 -0.01637641 45.37408089 -0.01400015 48.83934212 -0.00884247 C50.49094738 -0.0075183 52.14255789 -0.00910994 53.79415703 -0.01380157 C69.92137177 -0.0495151 83.9356592 1.09975189 96.40844727 12.49316406 C106.15759929 23.50970585 107.02761685 35.58779681 106.26538086 49.65429688 C105.62667158 55.30417297 103.28350215 59.66370105 99.97094727 64.25878906 C99.54168945 64.88785156 99.11243164 65.51691406 98.67016602 66.16503906 C95.97082837 69.75243242 92.75491855 71.97080642 88.97094727 74.25878906 C91.33248235 76.68779658 93.57919154 78.98043631 96.34594727 80.94628906 C104.53811371 88.1631976 109.15523583 97.90056734 110.34985352 108.67675781 C110.80318474 121.85261064 106.94247145 134.65835579 97.93579102 144.47753906 C84.75470659 156.93796455 69.48352094 158.72710766 52.12329102 158.62207031 C50.41744487 158.62155073 48.71159812 158.62207222 47.00575256 158.62358093 C43.45475166 158.62349179 39.90398054 158.61317228 36.35302734 158.5949707 C31.79656739 158.57212899 27.24043778 158.57177358 22.68393612 158.57848835 C19.17272487 158.58182176 15.66158942 158.57521273 12.15039253 158.56535912 C10.46902423 158.56150762 8.78764752 158.56035869 7.10627556 158.56194496 C4.76795048 158.56231435 2.43005725 158.54973667 0.09179688 158.53344727 C-0.95150536 158.53716339 -0.95150536 158.53716339 -2.0158844 158.54095459 C-6.80028933 158.48755247 -6.80028933 158.48755247 -9.02905273 156.25878906 C-9.28073502 153.61320496 -9.28073502 153.61320496 -9.28302002 150.18530273 C-9.28865967 148.889664 -9.29429932 147.59402527 -9.30010986 146.25912476 C-9.29622089 144.81500189 -9.29212453 143.37087957 -9.2878418 141.92675781 C-9.29055055 140.41248404 -9.29411083 138.89821159 -9.29846191 137.38394165 C-9.30760197 133.26418978 -9.30403504 129.14453776 -9.29770374 125.02478409 C-9.29265209 120.72021458 -9.29733286 116.41565382 -9.30047607 112.11108398 C-9.30411816 104.88133199 -9.29931027 97.65162081 -9.28979492 90.421875 C-9.2789099 82.05465137 -9.28243531 73.68752519 -9.29344773 65.32030392 C-9.30251371 58.14576093 -9.30380927 50.97124734 -9.29857039 43.79670048 C-9.29544689 39.50754765 -9.29505174 35.21844068 -9.30164337 30.92929077 C-9.30740621 26.89756059 -9.30343954 22.86595647 -9.29185486 18.83423996 C-9.28920256 17.35152776 -9.28998303 15.86880501 -9.29438019 14.38609695 C-9.29981443 12.3681602 -9.29180363 10.35020035 -9.28302002 8.33227539 C-9.28226597 7.20106766 -9.28151192 6.06985992 -9.28073502 4.90437317 C-8.73215029 -0.86213144 -4.83447204 0.00586093 0 0 Z " fill="#5E19EA" transform="translate(141.029052734375,104.7412109375)"/>
<path d="M0 0 C0.33 0 0.66 0 1 0 C1 77.22 1 154.44 1 234 C-75.56 234 -152.12 234 -231 234 C-231 233.67 -231 233.34 -231 233 C-230.41323486 232.93006836 -229.82646973 232.86013672 -229.22192383 232.78808594 C-185.36393854 227.49157747 -143.28457411 215.13437952 -107 189 C-106.3817334 188.55543457 -105.7634668 188.11086914 -105.12646484 187.65283203 C-97.1571371 181.89003958 -89.5450406 175.95565105 -82.37109375 169.21875 C-80.31847354 167.29801148 -78.2199047 165.48754319 -76.0625 163.6875 C-65.76839347 154.69591308 -57.1948082 143.87947267 -49 133 C-48.58540527 132.45827148 -48.17081055 131.91654297 -47.74365234 131.35839844 C-31.09655122 109.51856303 -19.86401643 84.82899127 -11 59 C-10.5875 57.81664062 -10.175 56.63328125 -9.75 55.4140625 C-3.850576 37.48534424 -1.91346253 18.68491751 0 0 Z " fill="#D8D8D9" transform="translate(499,266)"/>
<path d="M0 0 C75.9 0 151.8 0 230 0 C230 77.22 230 154.44 230 234 C229.67 234 229.34 234 229 234 C228.90203125 232.88367188 228.8040625 231.76734375 228.703125 230.6171875 C222.76766358 166.86107276 194.39922024 105.1367488 145.453125 62.796875 C142.6647506 60.49203373 139.84036645 58.240396 137 56 C136.03578125 55.21882813 135.0715625 54.43765625 134.078125 53.6328125 C107.84917626 32.79610957 77.22205126 17.93945107 45 9 C43.75476563 8.65453125 42.50953125 8.3090625 41.2265625 7.953125 C27.71613813 4.42055973 13.82177161 2.82471441 0 1 C0 0.67 0 0.34 0 0 Z " fill="#D8D8D9" transform="translate(270,0)"/>
<path d="M0 0 C0.33 0 0.66 0 1 0 C1.10022461 0.79470703 1.20044922 1.58941406 1.30371094 2.40820312 C3.75741089 22.86707773 3.75741089 22.86707773 8.38427734 42.90869141 C9.10367282 45.35212585 9.7778986 47.80679617 10.45703125 50.26171875 C24.14422015 98.53162433 53.12487181 144.11798583 93 175 C93.98097656 175.78632813 94.96195312 176.57265625 95.97265625 177.3828125 C135.45083038 208.80776173 183.01798176 225.91983525 233 230 C233 230.33 233 230.66 233 231 C156.11 231 79.22 231 0 231 C0 154.77 0 78.54 0 0 Z " fill="#D8D8D9" transform="translate(0,269)"/>
<path d="M0 0 C76.89 0 153.78 0 233 0 C233 0.33 233 0.66 233 1 C231.93640259 1.11275269 231.93640259 1.11275269 230.85131836 1.2277832 C211.27233955 3.18395904 211.27233955 3.18395904 192 7 C191.15356934 7.2160791 190.30713867 7.4321582 189.43505859 7.65478516 C160.1100536 15.32128776 131.36993326 27.55187535 106.88720703 45.61132812 C104.94834012 47.03801312 102.98946794 48.43364435 101.02734375 49.828125 C91.54868169 56.65358901 83.01297954 64.2442293 74.65185547 72.390625 C73.28920104 73.7182363 71.91384319 75.0327957 70.53515625 76.34375 C65.20161287 81.49774835 60.59484968 87.18751516 56 93 C55.2059375 93.98871094 54.411875 94.97742188 53.59375 95.99609375 C23.05595398 134.69985105 6.30990414 180.29369745 1 229 C0.67 229 0.34 229 0 229 C0 153.43 0 77.86 0 0 Z " fill="#D8D8D9" transform="translate(0,0)"/>
<path d="M0 0 C1.19496094 -0.00386719 1.19496094 -0.00386719 2.4140625 -0.0078125 C3.24679687 -0.00007812 4.07953125 0.00765625 4.9375 0.015625 C5.77023437 0.00789062 6.60296875 0.00015625 7.4609375 -0.0078125 C8.25757813 -0.00523437 9.05421875 -0.00265625 9.875 0 C10.60589844 0.00225586 11.33679688 0.00451172 12.08984375 0.00683594 C13.9375 0.265625 13.9375 0.265625 15.9375 2.265625 C16.18359566 4.63568306 16.18359566 4.63568306 16.17800903 7.66921997 C16.18075836 8.81629425 16.18350769 9.96336853 16.18634033 11.14520264 C16.17914978 12.40971252 16.17195923 13.67422241 16.16455078 14.97705078 C16.16398686 16.31723014 16.16430286 17.65741011 16.16543579 18.99758911 C16.16601104 22.64203636 16.15422908 26.2863527 16.14028788 29.93076944 C16.12780903 33.73711393 16.12661227 37.54346121 16.12423706 41.349823 C16.1180139 48.56047637 16.10159181 55.77106929 16.08153808 62.98169601 C16.05920505 71.18955838 16.04819219 79.39742359 16.03814721 87.60530877 C16.01722628 104.49211585 15.98203411 121.37886404 15.9375 138.265625 C16.89327942 138.25674255 17.84905884 138.24786011 18.83380127 138.2387085 C27.83876859 138.15764056 36.84366192 138.0976683 45.84891129 138.05837631 C50.47869316 138.03749674 55.10818057 138.00917251 59.73779297 137.96386719 C64.20521694 137.92042237 68.67235759 137.89649068 73.1399765 137.88611603 C74.84486095 137.87872217 76.5497298 137.86428368 78.25449371 137.84270477 C80.64168364 137.81368806 83.0277013 137.80966814 85.41503906 137.81152344 C86.12066483 137.79714233 86.82629059 137.78276123 87.55329895 137.76794434 C90.90887839 137.79618355 92.66190495 138.05853735 95.37664795 140.09844971 C97.52624982 143.08307856 97.43718909 145.18384438 97.375 148.828125 C97.37371094 149.96378906 97.37242187 151.09945312 97.37109375 152.26953125 C96.88984937 155.59488657 96.51820271 156.26916222 93.9375 158.265625 C92.04344082 158.64035511 92.04344082 158.64035511 89.86973572 158.6398468 C88.63100456 158.65036827 88.63100456 158.65036827 87.36724854 158.66110229 C86.46480408 158.65345856 85.56235962 158.64581482 84.63256836 158.63793945 C83.20295525 158.64341545 83.20295525 158.64341545 81.74446106 158.64900208 C78.58857504 158.65711987 75.43320044 158.64348808 72.27734375 158.62890625 C70.08923849 158.62838783 67.90113275 158.62890481 65.71302795 158.63041687 C61.12559056 158.63032709 56.53832872 158.61988579 51.95092773 158.60180664 C46.06026569 158.57910601 40.16985998 158.57857724 34.27916622 158.58532429 C29.76084602 158.58865976 25.24258465 158.58204237 20.72427559 158.57219505 C18.55167511 158.56833648 16.3790681 158.56719754 14.20646477 158.5687809 C11.17519448 158.56915025 8.14425751 158.55656827 5.11303711 158.5402832 C4.20856842 158.54276062 3.30409973 158.54523804 2.3722229 158.54779053 C-3.8337587 158.4943663 -3.8337587 158.4943663 -6.0625 156.265625 C-6.31418228 153.62004089 -6.31418228 153.62004089 -6.31646729 150.19213867 C-6.32210693 148.89649994 -6.32774658 147.60086121 -6.33355713 146.26596069 C-6.32966815 144.82183783 -6.32557179 143.3777155 -6.32128906 141.93359375 C-6.32399782 140.41931998 -6.3275581 138.90504753 -6.33190918 137.39077759 C-6.34104924 133.27102572 -6.33748231 129.1513737 -6.33115101 125.03162003 C-6.32609935 120.72705052 -6.33078013 116.42248975 -6.33392334 112.11791992 C-6.33756543 104.88816792 -6.33275754 97.65845674 -6.32324219 90.42871094 C-6.31235717 82.0614873 -6.31588257 73.69436113 -6.326895 65.32713985 C-6.33596098 58.15259687 -6.33725654 50.97808328 -6.33201766 43.80353642 C-6.32889415 39.51438359 -6.32849901 35.22527662 -6.33509064 30.93612671 C-6.34085348 26.90439653 -6.33688681 22.87279241 -6.32530212 18.8410759 C-6.32264983 17.3583637 -6.32343029 15.87564095 -6.32782745 14.39293289 C-6.33326169 12.37499613 -6.3252509 10.35703629 -6.31646729 8.33911133 C-6.31571323 7.20790359 -6.31495918 6.07669586 -6.31418228 4.91120911 C-5.89484322 0.50328353 -3.99578285 0.01233266 0 0 Z " fill="#5E18EA" transform="translate(276.0625,232.734375)"/>
<path d="M0 0 C12.87 -0.0928125 12.87 -0.0928125 26 -0.1875 C28.69414062 -0.21481201 31.38828125 -0.24212402 34.1640625 -0.27026367 C36.31770378 -0.2790318 38.47135006 -0.28667496 40.625 -0.29296875 C41.7284375 -0.30831665 42.831875 -0.32366455 43.96875 -0.33947754 C53.34214217 -0.34263853 60.20391872 1.35414608 67.16796875 7.93359375 C73.01306963 14.52646873 74.804705 21.08225652 74.4140625 29.8203125 C73.43164089 37.36456898 70.71369232 43.36722943 65.0625 48.53125 C58.62521868 53.11537457 50.85446182 55.13418064 43.02612305 55.11352539 C41.56523254 55.11334412 41.56523254 55.11334412 40.0748291 55.11315918 C38.55858948 55.10548523 38.55858948 55.10548523 37.01171875 55.09765625 C35.60388123 55.09614563 35.60388123 55.09614563 34.16760254 55.09460449 C30.67422253 55.08938734 27.18085999 55.07542608 23.6875 55.0625 C15.870625 55.041875 8.05375 55.02125 0 55 C0 36.85 0 18.7 0 0 Z " fill="#60D1E9" transform="translate(154,190)"/>
<path d="M0 0 C7.08073915 -0.09215713 14.1593719 -0.17170118 21.24023438 -0.21972656 C23.64557981 -0.23976034 26.05087703 -0.26699522 28.45605469 -0.30175781 C31.92655378 -0.35063808 35.39640526 -0.37305205 38.8671875 -0.390625 C40.46311234 -0.42159271 40.46311234 -0.42159271 42.09127808 -0.45318604 C50.3686514 -0.45563707 57.6263499 1.25432593 64.375 6.25 C69.43317733 11.54904292 71.24163329 16.00373768 71.5625 23.375 C71.29773608 30.74568579 69.41718612 36.62491473 64.09765625 41.87890625 C56.52025861 47.91464525 49.4372809 48.28299123 40.0390625 48.1953125 C38.89335785 48.1924826 37.7476532 48.18965271 36.56723022 48.18673706 C32.91971245 48.17557135 29.27244315 48.15047299 25.625 48.125 C23.14713897 48.11496555 20.66927408 48.10584051 18.19140625 48.09765625 C12.12743218 48.07734823 6.06399317 48.0381917 0 48 C0 32.16 0 16.32 0 0 Z " fill="#60D2E9" transform="translate(154,123)"/>
</svg>
